<svg xmlns="http://www.w3.org/2000/svg" version="1.1" xmlns:xlink="http://www.w3.org/1999/xlink" xmlns:svgjs="http://svgjs.dev/svgjs" width="1500" height="1500" viewBox="0 0 1500 1500"><rect width="1500" height="1500" fill="#000000"></rect><g transform="matrix(0.6666666666666666,0,0,0.6666666666666666,249.39393939393938,438.5856950067477)"><svg viewBox="0 0 396 247" data-background-color="#ffffff" preserveAspectRatio="xMidYMid meet" height="935" width="1500" xmlns="http://www.w3.org/2000/svg" xmlns:xlink="http://www.w3.org/1999/xlink"><g id="tight-bounds" transform="matrix(1,0,0,1,0.2400000000000091,-0.09999999999999432)"><svg viewBox="0 0 395.52 247.2" height="247.2" width="395.52"><g><svg></svg></g><g><svg viewBox="0 0 395.52 247.2" height="247.2" width="395.52"><g transform="matrix(1,0,0,1,138.75550956521738,47.215199999999996)"><svg viewBox="0 0 118.0089808695652 152.7696" height="152.7696" width="118.0089808695652"><g><svg viewBox="0 0 118.0089808695652 152.7696" height="152.7696" width="118.0089808695652"><g><svg viewBox="0 0 118.00898086956524 152.76960000000003" height="152.7696" width="118.0089808695652"><g><svg viewBox="0 0 118.00898086956524 152.76960000000003" height="152.76960000000003" width="118.00898086956524"><g id="textblocktransform"><svg viewBox="0 0 118.00898086956524 152.76960000000003" height="152.76960000000003" width="118.00898086956524" id="textblock"><g><svg viewBox="0 0 118.00898086956524 152.76960000000003" height="152.76960000000003" width="118.00898086956524"><g transform="matrix(1,0,0,1,0,0)"><svg width="118.00898086956524" viewBox="1.2 -34.5 26.650000000000002 34.5" height="152.76960000000003" data-palette-color="#000000"><path d="M12.3-34.5L16.7-34.5 16.7 0 12.3 0 12.3-34.5ZM1.2-34.5L27.85-34.5 27.85-30.6 1.2-30.6 1.2-34.5Z" opacity="1" transform="matrix(1,0,0,1,0,0)" fill="#ffffff" class="wordmark-text-0" data-fill-palette-color="primary" id="text-0"></path></svg></g></svg></g></svg></g></svg></g></svg></g></svg></g></svg></g><g><path d="M0 123.6c0-68.262 55.338-123.6 123.6-123.6 30.402 0 58.24 10.976 79.768 29.183l-11.147 0c-19.26-14.022-42.974-22.294-68.621-22.295-64.458 0-116.712 52.254-116.712 116.712 0 64.458 52.254 116.712 116.712 116.712 25.647 0 49.361-8.272 68.621-22.295l11.147 0c-21.528 18.206-49.366 29.183-79.768 29.183-68.262 0-123.6-55.338-123.6-123.6z" fill="#ffffff" stroke="transparent" data-fill-palette-color="tertiary"></path></g></svg></g><defs></defs></svg><rect width="395.52" height="247.2" fill="none" stroke="none" visibility="hidden"></rect></g></svg></g></svg>